grf.mot																		
version=1																		
nRows=14
nColumns=31
inDegrees=yes																		
endheader																		
time	ground_force_vx	ground_force_vy	ground_force_vz	ground_force_px	ground_force_py	ground_force_pz	1_ground_force_vx	1_ground_force_vy	1_ground_force_vz	1_ground_force_px	1_ground_force_py	1_ground_force_pz	ground_torque_x	ground_torque_y	ground_torque_z	1_ground_torque_x	1_ground_torque_y	1_ground_torque_z	apo_force_vx	apo_force_vy	apo_force_vz	apo_force_px	apo_force_py	apo_force_pz	1_apo_force_vx	1_apo_force_vy	1_apo_force_vz	1_apo_force_px	1_apo_force_py	1_apo_force_pz	
0.01500000000000	71.65649999999999	912.76099999999997	-40.01090000000000	-0.31666800000000	0.00000000000000	0.06442220000000	0.00000000000000	0.00000000000000	0.00000000000000	0.00000000000000	0.00000000000000	0.00000000000000	0.00000000000000	2.07518000000000	0.00000000000000	0.00000000000000	0.00000000000000	0.00000000000000	-1.79270000000000	0.23504000000000	0.00000000000000	0.00000000000000	-0.35000000000000	0.00000000000000	2.90890000000000	2.18360000000000	0.00000000000000	0.00000000000000	-0.35000000000000	0.00000000000000	
0.02000000000000	79.51530000000000	939.49900000000002	-41.10920000000000	-0.32112700000000	0.00000000000000	0.06413770000000	0.00000000000000	0.00000000000000	0.00000000000000	0.00000000000000	0.00000000000000	0.00000000000000	0.00000000000000	1.83334000000000	0.00000000000000	0.00000000000000	0.00000000000000	0.00000000000000	-0.26274000000000	0.03697200000000	0.00000000000000	0.00000000000000	-0.35000000000000	0.00000000000000	1.27460000000000	0.95763000000000	0.00000000000000	0.00000000000000	-0.35000000000000	0.00000000000000	
0.02500000000000	88.11300000000000	965.29800000000000	-41.99850000000000	-0.32661300000000	0.00000000000000	0.06392700000000	0.00000000000000	0.00000000000000	0.00000000000000	0.00000000000000	0.00000000000000	0.00000000000000	0.00000000000000	1.58319000000000	0.00000000000000	0.00000000000000	0.00000000000000	0.00000000000000	1.27190000000000	-0.19118000000000	0.00000000000000	0.00000000000000	-0.35000000000000	0.00000000000000	-0.32832000000000	-0.24692000000000	0.00000000000000	0.00000000000000	-0.35000000000000	0.00000000000000	
0.03000000000000	97.40250000000000	989.80100000000004	-42.65860000000000	-0.33322400000000	0.00000000000000	0.06379400000000	0.00000000000000	0.00000000000000	0.00000000000000	0.00000000000000	0.00000000000000	0.00000000000000	0.00000000000000	1.32442000000000	0.00000000000000	0.00000000000000	0.00000000000000	0.00000000000000	2.84060000000000	-0.45411000000000	0.00000000000000	0.00000000000000	-0.35000000000000	0.00000000000000	-1.90570000000000	-1.43490000000000	0.00000000000000	0.00000000000000	-0.35000000000000	0.00000000000000	
0.03500000000000	107.31500000000000	1012.64000000000000	-43.07290000000000	-0.34103000000000	0.00000000000000	0.06374010000000	0.00000000000000	0.00000000000000	0.00000000000000	0.00000000000000	0.00000000000000	0.00000000000000	0.00000000000000	1.05688000000000	0.00000000000000	0.00000000000000	0.00000000000000	0.00000000000000	4.47040000000000	-0.75695000000000	0.00000000000000	0.00000000000000	-0.35000000000000	0.00000000000000	-3.46240000000000	-2.61080000000000	0.00000000000000	0.00000000000000	-0.35000000000000	0.00000000000000	
0.04000000000000	117.76200000000000	1033.44000000000010	-43.22840000000000	-0.35007100000000	0.00000000000000	0.06376450000000	0.00000000000000	0.00000000000000	0.00000000000000	0.00000000000000	0.00000000000000	0.00000000000000	0.00000000000000	0.78061500000000	0.00000000000000	0.00000000000000	0.00000000000000	0.00000000000000	6.18250000000000	-1.10460000000000	0.00000000000000	0.00000000000000	-0.35000000000000	0.00000000000000	-5.00100000000000	-3.77740000000000	0.00000000000000	0.00000000000000	-0.35000000000000	0.00000000000000	
0.04500000000000	128.63100000000000	1051.80999999999990	-43.11640000000000	-0.36035400000000	0.00000000000000	0.06386360000000	0.00000000000000	0.00000000000000	0.00000000000000	0.00000000000000	0.00000000000000	0.00000000000000	0.00000000000000	0.49592800000000	0.00000000000000	0.00000000000000	0.00000000000000	0.00000000000000	7.99010000000000	-1.50100000000000	0.00000000000000	0.00000000000000	-0.35000000000000	0.00000000000000	-6.52000000000000	-4.93480000000000	0.00000000000000	0.00000000000000	-0.35000000000000	0.00000000000000	
0.05000000000000	139.79200000000000	1067.40000000000010	-42.73230000000000	-0.37184600000000	0.00000000000000	0.06403100000000	0.00000000000000	0.00000000000000	0.00000000000000	0.00000000000000	0.00000000000000	0.00000000000000	0.00000000000000	0.20340600000000	0.00000000000000	0.00000000000000	0.00000000000000	0.00000000000000	9.89540000000000	-1.94800000000000	0.00000000000000	0.00000000000000	-0.35000000000000	0.00000000000000	-8.01200000000000	-6.07880000000000	0.00000000000000	0.00000000000000	-0.35000000000000	0.00000000000000	
0.05500000000000	151.09800000000001	1079.82999999999990	-42.07630000000000	-0.38447500000000	0.00000000000000	0.06425740000000	0.00000000000000	0.00000000000000	0.00000000000000	0.00000000000000	0.00000000000000	0.00000000000000	0.00000000000000	-0.09604370000000	0.00000000000000	0.00000000000000	0.00000000000000	0.00000000000000	11.88700000000000	-2.44430000000000	0.00000000000000	0.00000000000000	-0.35000000000000	0.00000000000000	-9.46350000000000	-7.20040000000000	0.00000000000000	0.00000000000000	-0.35000000000000	0.00000000000000	
0.06000000000000	162.38499999999999	1088.77000000000000	-41.15310000000000	-0.39812400000000	0.00000000000000	0.06453070000000	0.00000000000000	0.00000000000000	0.00000000000000	0.00000000000000	0.00000000000000	0.00000000000000	0.00000000000000	-0.40116800000000	0.00000000000000	0.00000000000000	0.00000000000000	0.00000000000000	13.94200000000000	-2.98490000000000	0.00000000000000	0.00000000000000	-0.35000000000000	0.00000000000000	-10.85400000000000	-8.28570000000000	0.00000000000000	0.00000000000000	-0.35000000000000	0.00000000000000	
0.06500000000000	173.47900000000001	1093.91000000000010	-39.97160000000000	-0.41263500000000	0.00000000000000	0.06483590000000	0.00000000000000	0.00000000000000	0.00000000000000	0.00000000000000	0.00000000000000	0.00000000000000	0.00000000000000	-0.71035600000000	0.00000000000000	0.00000000000000	0.00000000000000	0.00000000000000	16.02200000000000	-3.56080000000000	0.00000000000000	0.00000000000000	-0.35000000000000	0.00000000000000	-12.16000000000000	-9.31720000000000	0.00000000000000	0.00000000000000	-0.35000000000000	0.00000000000000	
0.07000000000000	184.19600000000000	1094.98000000000000	-38.54530000000000	-0.42780400000000	0.00000000000000	0.06515570000000	0.00000000000000	0.00000000000000	0.00000000000000	0.00000000000000	0.00000000000000	0.00000000000000	0.00000000000000	-1.02163000000000	0.00000000000000	0.00000000000000	0.00000000000000	0.00000000000000	18.08100000000000	-4.15850000000000	0.00000000000000	0.00000000000000	-0.35000000000000	0.00000000000000	-13.35300000000000	-10.27300000000000	0.00000000000000	0.00000000000000	-0.35000000000000	0.00000000000000	
0.07500000000000	194.34899999999999	1091.74000000000000	-36.89170000000000	-0.44339000000000	0.00000000000000	0.06547000000000	21.53780000000000	36.09810000000000	-14.59540000000000	0.00009650000000	0.00000000000000	-0.04073400000000	0.00000000000000	-1.33269000000000	0.00000000000000	0.00000000000000	-0.35445900000000	0.00000000000000	23.32900000000000	-5.53610000000000	0.00000000000000	0.00000000000000	-0.35000000000000	0.00000000000000	-18.17800000000000	-14.05000000000000	0.00000000000000	0.00000000000000	-0.35000000000000	0.00000000000000	
0.08000000000000	203.74900000000000	1084.02000000000000	-35.03200000000000	-0.45911400000000	0.00000000000000	0.06575720000000	19.54190000000000	55.15560000000000	-16.14130000000000	0.00467939000000	0.00000000000000	-0.04618420000000	0.00000000000000	-1.64086000000000	0.00000000000000	0.00000000000000	-0.37108100000000	0.00000000000000	25.22400000000000	-6.15710000000000	0.00000000000000	0.00000000000000	-0.35000000000000	0.00000000000000	-19.26200000000000	-14.96300000000000	0.00000000000000	0.00000000000000	-0.35000000000000	0.00000000000000	
